<svg xmlns="http://www.w3.org/2000/svg" xmlns:xlink="http://www.w3.org/1999/xlink" width="240" zoomAndPan="magnify" viewBox="0 0 180 60" height="80" preserveAspectRatio="xMidYMid meet" version="1.0"><defs><g/><clipPath id="e7ed2b2fa8"><path d="M 2.902344 30 L 31 30 L 31 52 L 2.902344 52 Z M 2.902344 30 " clip-rule="nonzero"/></clipPath><clipPath id="e8c760c70b"><path d="M 29 8 L 57.652344 8 L 57.652344 30 L 29 30 Z M 29 8 " clip-rule="nonzero"/></clipPath></defs><rect x="-18" width="216" fill="#ffffff" y="-6" height="72" fill-opacity="1"/><rect x="-18" width="216" fill="#ffffff" y="-6" height="72" fill-opacity="1"/><path fill="#7f248d" d="M 41.835938 23.65625 C 40.699219 23.761719 39.628906 24.058594 38.65625 24.519531 C 42.578125 24.609375 46.1875 27.140625 47.4375 31.066406 C 49.316406 36.96875 43.757812 45.855469 44.734375 53.105469 C 45.292969 46.308594 51.703125 39.324219 52.113281 33.414062 C 52.539062 33.6875 53.058594 33.828125 53.601562 33.777344 C 54.898438 33.660156 55.851562 32.519531 55.730469 31.234375 C 55.613281 29.945312 54.464844 29 53.171875 29.117188 C 52.542969 29.175781 52 29.472656 51.617188 29.90625 C 50.222656 25.929688 46.246094 23.253906 41.835938 23.65625 " fill-opacity="1" fill-rule="nonzero"/><path fill="#1082ce" d="M 41.585938 36.773438 C 40.925781 35.847656 40.132812 35.078125 39.246094 34.46875 C 41.128906 37.890625 40.726562 42.257812 37.929688 45.296875 C 33.722656 49.867188 23.195312 49.527344 17.363281 53.992188 C 23.566406 51.070312 32.863281 53.097656 38.21875 50.492188 C 38.195312 50.996094 38.328125 51.511719 38.644531 51.957031 C 39.398438 53.011719 40.867188 53.261719 41.929688 52.515625 C 42.992188 51.769531 43.242188 50.308594 42.492188 49.253906 C 42.128906 48.746094 41.597656 48.425781 41.027344 48.3125 C 43.796875 45.125 44.140625 40.363281 41.585938 36.773438 " fill-opacity="1" fill-rule="nonzero"/><g clip-path="url(#e7ed2b2fa8)"><path fill="#40b93c" d="M 30.027344 43.117188 C 30.503906 42.085938 30.777344 41.015625 30.863281 39.949219 C 28.824219 43.28125 24.8125 45.117188 20.765625 44.230469 C 14.679688 42.898438 9.710938 33.671875 2.902344 30.886719 C 8.550781 34.765625 11.433594 43.773438 16.382812 47.078125 C 15.929688 47.308594 15.546875 47.683594 15.320312 48.179688 C 14.773438 49.351562 15.292969 50.742188 16.472656 51.28125 C 17.65625 51.824219 19.054688 51.3125 19.597656 50.136719 C 19.859375 49.570312 19.875 48.953125 19.6875 48.40625 C 23.847656 49.195312 28.171875 47.109375 30.027344 43.117188 " fill-opacity="1" fill-rule="nonzero"/></g><path fill="#fbc108" d="M 18.714844 36.34375 C 19.851562 36.238281 20.921875 35.941406 21.894531 35.480469 C 17.972656 35.390625 14.363281 32.859375 13.113281 28.933594 C 11.234375 23.03125 16.792969 14.144531 15.816406 6.894531 C 15.257812 13.691406 8.847656 20.675781 8.4375 26.585938 C 8.011719 26.3125 7.496094 26.171875 6.949219 26.222656 C 5.652344 26.339844 4.699219 27.480469 4.820312 28.765625 C 4.9375 30.054688 6.085938 31 7.382812 30.882812 C 8.007812 30.824219 8.550781 30.527344 8.933594 30.09375 C 10.328125 34.070312 14.308594 36.746094 18.714844 36.34375 " fill-opacity="1" fill-rule="nonzero"/><path fill="#e91348" d="M 18.964844 23.226562 C 19.625 24.152344 20.421875 24.921875 21.308594 25.53125 C 19.421875 22.109375 19.828125 17.742188 22.625 14.703125 C 26.828125 10.132812 37.355469 10.472656 43.191406 6.007812 C 36.984375 8.929688 27.691406 6.902344 22.332031 9.507812 C 22.355469 9.003906 22.222656 8.488281 21.90625 8.042969 C 21.15625 6.988281 19.683594 6.738281 18.621094 7.484375 C 17.558594 8.230469 17.308594 9.691406 18.058594 10.746094 C 18.421875 11.253906 18.953125 11.574219 19.523438 11.6875 C 16.753906 14.875 16.410156 19.636719 18.964844 23.226562 " fill-opacity="1" fill-rule="nonzero"/><g clip-path="url(#e8c760c70b)"><path fill="#f1471d" d="M 30.523438 16.882812 C 30.046875 17.914062 29.773438 18.984375 29.6875 20.050781 C 31.726562 16.71875 35.738281 14.882812 39.785156 15.769531 C 45.871094 17.101562 50.839844 26.328125 57.648438 29.113281 C 52 25.234375 49.117188 16.226562 44.167969 12.921875 C 44.621094 12.691406 45.003906 12.316406 45.230469 11.820312 C 45.777344 10.648438 45.257812 9.257812 44.078125 8.71875 C 42.898438 8.175781 41.496094 8.6875 40.953125 9.863281 C 40.691406 10.429688 40.675781 11.046875 40.867188 11.59375 C 36.703125 10.804688 32.378906 12.886719 30.523438 16.882812 " fill-opacity="1" fill-rule="nonzero"/></g><g fill="#1082ce" fill-opacity="1"><g transform="translate(64.33956, 25.430359)"><g><path d="M 5.722656 0 L 7.617188 0 L 4.714844 -8.0625 L 2.726562 -8.0625 L -0.175781 0 L 1.71875 0 L 2.21875 -1.519531 L 5.226562 -1.519531 Z M 2.6875 -2.996094 L 3.722656 -6.195312 L 4.757812 -2.996094 Z M 2.6875 -2.996094 "/></g></g></g><g fill="#1082ce" fill-opacity="1"><g transform="translate(72.177637, 25.430359)"><g><path d="M 7.820312 -8.0625 L 5.253906 -2.484375 L 2.714844 -8.0625 L 0.792969 -8.0625 L 0.792969 0 L 2.566406 0 L 2.566406 -4.808594 L 4.742188 0 L 5.765625 0 L 7.953125 -4.796875 L 7.953125 0 L 9.726562 0 L 9.726562 -8.0625 Z M 7.820312 -8.0625 "/></g></g></g><g fill="#1082ce" fill-opacity="1"><g transform="translate(83.091222, 25.430359)"><g><path d="M 5.710938 -6.503906 L 5.710938 -8.0625 L 0.859375 -8.0625 L 0.859375 0 L 5.710938 0 L 5.710938 -1.558594 L 2.632812 -1.558594 L 2.632812 -3.25 L 5.265625 -3.25 L 5.265625 -4.808594 L 2.632812 -4.808594 L 2.632812 -6.503906 Z M 5.710938 -6.503906 "/></g></g></g><g fill="#1082ce" fill-opacity="1"><g transform="translate(89.747445, 25.430359)"><g><path d="M 5 -3.320312 C 5.953125 -3.601562 6.625 -4.488281 6.625 -5.589844 C 6.625 -6.960938 5.601562 -8.0625 4.21875 -8.0625 L 0.792969 -8.0625 L 0.792969 0 L 2.566406 0 L 2.566406 -3.117188 L 3.277344 -3.117188 L 5.265625 0 L 7.257812 0 Z M 3.949219 -4.582031 L 2.566406 -4.582031 L 2.566406 -6.488281 L 3.949219 -6.488281 C 4.515625 -6.488281 4.929688 -6.085938 4.929688 -5.535156 C 4.929688 -4.972656 4.515625 -4.582031 3.949219 -4.582031 Z M 3.949219 -4.582031 "/></g></g></g><g fill="#1082ce" fill-opacity="1"><g transform="translate(97.330347, 25.430359)"><g><path d="M 0.859375 0 L 2.632812 0 L 2.632812 -8.0625 L 0.859375 -8.0625 Z M 0.859375 0 "/></g></g></g><g fill="#1082ce" fill-opacity="1"><g transform="translate(101.206524, 25.430359)"><g><path d="M 4.636719 0.109375 C 6.234375 0.109375 7.617188 -0.792969 8.304688 -2.109375 L 6.773438 -2.902344 C 6.382812 -2.136719 5.589844 -1.625 4.636719 -1.625 C 3.277344 -1.625 2.242188 -2.675781 2.242188 -4.03125 C 2.242188 -5.386719 3.277344 -6.4375 4.636719 -6.4375 C 5.589844 -6.4375 6.382812 -5.925781 6.773438 -5.160156 L 8.304688 -5.953125 C 7.617188 -7.269531 6.234375 -8.167969 4.636719 -8.167969 C 2.351562 -8.167969 0.496094 -6.316406 0.496094 -4.03125 C 0.496094 -1.746094 2.351562 0.109375 4.636719 0.109375 Z M 4.636719 0.109375 "/></g></g></g><g fill="#1082ce" fill-opacity="1"><g transform="translate(110.253319, 25.430359)"><g><path d="M 5.722656 0 L 7.617188 0 L 4.714844 -8.0625 L 2.726562 -8.0625 L -0.175781 0 L 1.71875 0 L 2.21875 -1.519531 L 5.226562 -1.519531 Z M 2.6875 -2.996094 L 3.722656 -6.195312 L 4.757812 -2.996094 Z M 2.6875 -2.996094 "/></g></g></g><g fill="#1082ce" fill-opacity="1"><g transform="translate(118.091396, 25.430359)"><g><path d="M 6.585938 -8.0625 L 6.585938 -2.726562 L 2.621094 -8.0625 L 0.792969 -8.0625 L 0.792969 0 L 2.566406 0 L 2.566406 -5.347656 L 6.515625 0 L 8.34375 0 L 8.34375 -8.0625 Z M 6.585938 -8.0625 "/></g></g></g><g fill="#1082ce" fill-opacity="1"><g transform="translate(127.635109, 25.430359)"><g/></g></g><g fill="#1082ce" fill-opacity="1"><g transform="translate(131.256122, 25.430359)"><g><path d="M 4.636719 0.109375 C 6.234375 0.109375 7.617188 -0.792969 8.304688 -2.109375 L 6.773438 -2.902344 C 6.382812 -2.136719 5.589844 -1.625 4.636719 -1.625 C 3.277344 -1.625 2.242188 -2.675781 2.242188 -4.03125 C 2.242188 -5.386719 3.277344 -6.4375 4.636719 -6.4375 C 5.589844 -6.4375 6.382812 -5.925781 6.773438 -5.160156 L 8.304688 -5.953125 C 7.617188 -7.269531 6.234375 -8.167969 4.636719 -8.167969 C 2.351562 -8.167969 0.496094 -6.316406 0.496094 -4.03125 C 0.496094 -1.746094 2.351562 0.109375 4.636719 0.109375 Z M 4.636719 0.109375 "/></g></g></g><g fill="#1082ce" fill-opacity="1"><g transform="translate(140.30292, 25.430359)"><g><path d="M 5.722656 0 L 7.617188 0 L 4.714844 -8.0625 L 2.726562 -8.0625 L -0.175781 0 L 1.71875 0 L 2.21875 -1.519531 L 5.226562 -1.519531 Z M 2.6875 -2.996094 L 3.722656 -6.195312 L 4.757812 -2.996094 Z M 2.6875 -2.996094 "/></g></g></g><g fill="#1082ce" fill-opacity="1"><g transform="translate(148.141, 25.430359)"><g><path d="M 5 -3.320312 C 5.953125 -3.601562 6.625 -4.488281 6.625 -5.589844 C 6.625 -6.960938 5.601562 -8.0625 4.21875 -8.0625 L 0.792969 -8.0625 L 0.792969 0 L 2.566406 0 L 2.566406 -3.117188 L 3.277344 -3.117188 L 5.265625 0 L 7.257812 0 Z M 3.949219 -4.582031 L 2.566406 -4.582031 L 2.566406 -6.488281 L 3.949219 -6.488281 C 4.515625 -6.488281 4.929688 -6.085938 4.929688 -5.535156 C 4.929688 -4.972656 4.515625 -4.582031 3.949219 -4.582031 Z M 3.949219 -4.582031 "/></g></g></g><g fill="#1082ce" fill-opacity="1"><g transform="translate(155.723906, 25.430359)"><g><path d="M 5.710938 -6.503906 L 5.710938 -8.0625 L 0.859375 -8.0625 L 0.859375 0 L 5.710938 0 L 5.710938 -1.558594 L 2.632812 -1.558594 L 2.632812 -3.25 L 5.265625 -3.25 L 5.265625 -4.808594 L 2.632812 -4.808594 L 2.632812 -6.503906 Z M 5.710938 -6.503906 "/></g></g></g><g fill="#1082ce" fill-opacity="1"><g transform="translate(64.33956, 40.662497)"><g><path d="M 5.710938 -6.503906 L 5.710938 -8.0625 L 0.859375 -8.0625 L 0.859375 0 L 2.632812 0 L 2.632812 -3.25 L 5.265625 -3.25 L 5.265625 -4.808594 L 2.632812 -4.808594 L 2.632812 -6.503906 Z M 5.710938 -6.503906 "/></g></g></g><g fill="#1082ce" fill-opacity="1"><g transform="translate(70.579451, 40.662497)"><g><path d="M 4.636719 0.109375 C 6.933594 0.109375 8.773438 -1.746094 8.773438 -4.03125 C 8.773438 -6.316406 6.933594 -8.167969 4.636719 -8.167969 C 2.351562 -8.167969 0.496094 -6.316406 0.496094 -4.03125 C 0.496094 -1.746094 2.351562 0.109375 4.636719 0.109375 Z M 4.636719 -1.625 C 3.277344 -1.625 2.242188 -2.675781 2.242188 -4.03125 C 2.242188 -5.386719 3.277344 -6.4375 4.636719 -6.4375 C 6.007812 -6.4375 7.039062 -5.386719 7.039062 -4.03125 C 7.039062 -2.675781 6.007812 -1.625 4.636719 -1.625 Z M 4.636719 -1.625 "/></g></g></g><g fill="#1082ce" fill-opacity="1"><g transform="translate(80.257462, 40.662497)"><g><path d="M 4.097656 0.109375 C 6.007812 0.109375 7.457031 -1.0625 7.457031 -2.578125 L 7.457031 -8.0625 L 5.683594 -8.0625 L 5.683594 -2.914062 C 5.683594 -2.097656 5 -1.464844 4.097656 -1.464844 C 3.210938 -1.464844 2.527344 -2.097656 2.527344 -2.914062 L 2.527344 -8.0625 L 0.753906 -8.0625 L 0.753906 -2.578125 C 0.753906 -1.0625 2.21875 0.109375 4.097656 0.109375 Z M 4.097656 0.109375 "/></g></g></g><g fill="#1082ce" fill-opacity="1"><g transform="translate(88.861059, 40.662497)"><g><path d="M 6.585938 -8.0625 L 6.585938 -2.726562 L 2.621094 -8.0625 L 0.792969 -8.0625 L 0.792969 0 L 2.566406 0 L 2.566406 -5.347656 L 6.515625 0 L 8.34375 0 L 8.34375 -8.0625 Z M 6.585938 -8.0625 "/></g></g></g><g fill="#1082ce" fill-opacity="1"><g transform="translate(98.404769, 40.662497)"><g><path d="M 0.792969 0 L 3.453125 0 C 5.671875 0 7.484375 -1.800781 7.484375 -4.03125 C 7.484375 -6.261719 5.671875 -8.0625 3.453125 -8.0625 L 0.792969 -8.0625 Z M 2.566406 -1.570312 L 2.566406 -6.488281 L 3.441406 -6.488281 C 4.714844 -6.488281 5.710938 -5.429688 5.710938 -4.03125 C 5.710938 -2.632812 4.714844 -1.570312 3.441406 -1.570312 Z M 2.566406 -1.570312 "/></g></g></g><g fill="#1082ce" fill-opacity="1"><g transform="translate(106.780051, 40.662497)"><g><path d="M 5.722656 0 L 7.617188 0 L 4.714844 -8.0625 L 2.726562 -8.0625 L -0.175781 0 L 1.71875 0 L 2.21875 -1.519531 L 5.226562 -1.519531 Z M 2.6875 -2.996094 L 3.722656 -6.195312 L 4.757812 -2.996094 Z M 2.6875 -2.996094 "/></g></g></g><g fill="#1082ce" fill-opacity="1"><g transform="translate(114.618128, 40.662497)"><g><path d="M 5.765625 -8.0625 L -0.0664062 -8.0625 L -0.0664062 -6.488281 L 1.976562 -6.488281 L 1.976562 0 L 3.734375 0 L 3.734375 -6.488281 L 5.765625 -6.488281 Z M 5.765625 -8.0625 "/></g></g></g><g fill="#1082ce" fill-opacity="1"><g transform="translate(120.710282, 40.662497)"><g><path d="M 0.859375 0 L 2.632812 0 L 2.632812 -8.0625 L 0.859375 -8.0625 Z M 0.859375 0 "/></g></g></g><g fill="#1082ce" fill-opacity="1"><g transform="translate(124.586463, 40.662497)"><g><path d="M 4.636719 0.109375 C 6.933594 0.109375 8.773438 -1.746094 8.773438 -4.03125 C 8.773438 -6.316406 6.933594 -8.167969 4.636719 -8.167969 C 2.351562 -8.167969 0.496094 -6.316406 0.496094 -4.03125 C 0.496094 -1.746094 2.351562 0.109375 4.636719 0.109375 Z M 4.636719 -1.625 C 3.277344 -1.625 2.242188 -2.675781 2.242188 -4.03125 C 2.242188 -5.386719 3.277344 -6.4375 4.636719 -6.4375 C 6.007812 -6.4375 7.039062 -5.386719 7.039062 -4.03125 C 7.039062 -2.675781 6.007812 -1.625 4.636719 -1.625 Z M 4.636719 -1.625 "/></g></g></g><g fill="#1082ce" fill-opacity="1"><g transform="translate(134.264478, 40.662497)"><g><path d="M 6.585938 -8.0625 L 6.585938 -2.726562 L 2.621094 -8.0625 L 0.792969 -8.0625 L 0.792969 0 L 2.566406 0 L 2.566406 -5.347656 L 6.515625 0 L 8.34375 0 L 8.34375 -8.0625 Z M 6.585938 -8.0625 "/></g></g></g><g fill="#1082ce" fill-opacity="1"><g transform="translate(143.808192, 40.662497)"><g/></g></g><g fill="#1082ce" fill-opacity="1"><g transform="translate(147.429205, 40.662497)"><g><path d="M 0.859375 0 L 2.632812 0 L 2.632812 -8.0625 L 0.859375 -8.0625 Z M 0.859375 0 "/></g></g></g><g fill="#1082ce" fill-opacity="1"><g transform="translate(151.305386, 40.662497)"><g><path d="M 6.585938 -8.0625 L 6.585938 -2.726562 L 2.621094 -8.0625 L 0.792969 -8.0625 L 0.792969 0 L 2.566406 0 L 2.566406 -5.347656 L 6.515625 0 L 8.34375 0 L 8.34375 -8.0625 Z M 6.585938 -8.0625 "/></g></g></g><g fill="#1082ce" fill-opacity="1"><g transform="translate(160.8491, 40.662497)"><g><path d="M 4.636719 0.109375 C 6.234375 0.109375 7.617188 -0.792969 8.304688 -2.109375 L 6.773438 -2.902344 C 6.382812 -2.136719 5.589844 -1.625 4.636719 -1.625 C 3.277344 -1.625 2.242188 -2.675781 2.242188 -4.03125 C 2.242188 -5.386719 3.277344 -6.4375 4.636719 -6.4375 C 5.589844 -6.4375 6.382812 -5.925781 6.773438 -5.160156 L 8.304688 -5.953125 C 7.617188 -7.269531 6.234375 -8.167969 4.636719 -8.167969 C 2.351562 -8.167969 0.496094 -6.316406 0.496094 -4.03125 C 0.496094 -1.746094 2.351562 0.109375 4.636719 0.109375 Z M 4.636719 0.109375 "/></g></g></g><g fill="#1082ce" fill-opacity="1"><g transform="translate(169.895897, 40.662497)"><g><path d="M 1.8125 0.109375 C 2.351562 0.109375 2.808594 -0.335938 2.808594 -0.875 C 2.808594 -1.410156 2.351562 -1.855469 1.8125 -1.855469 C 1.289062 -1.855469 0.847656 -1.410156 0.847656 -0.875 C 0.847656 -0.335938 1.289062 0.109375 1.8125 0.109375 Z M 1.8125 0.109375 "/></g></g></g></svg>